<?xml version="1.0" encoding="UTF-8"?>
<svg width="40px" height="41px" viewBox="0 0 40 41" version="1.1" xmlns="http://www.w3.org/2000/svg" xmlns:xlink="http://www.w3.org/1999/xlink">
    <title>atoms/icons/sync copy 3</title>
    <g id="Page-1" stroke="none" stroke-width="1" fill="none" fill-rule="evenodd">
        <g id="Personal-area/Public-page" transform="translate(-64.000000, -15.000000)" fill="#222222">
            <g id="atoms/icons/sync-copy-3" transform="translate(64.000000, 16.000000)">
                <path d="M27.4941667,22.4995 C29.9091667,22.4995 32.0441667,24.0378333 32.8075,26.3295 L32.8075,26.3295 L37.2108333,39.5345 L28.6725,38.1128333 L23.4675,22.4995 Z M18.1983333,22.4988333 L23.0916667,37.1821667 L16.6633333,36.1105 C10.33,35.0555 6.43666667,28.5905 8.46833333,22.4988333 L8.46833333,22.4988333 L18.1983333,22.4988333 Z M16.9066667,2.818 L40,6.66633333 L40,24.3513333 C40,25.7763333 38.0016667,26.1013333 37.55,24.748 C36.1066667,20.4196667 32.055,17.4996667 27.4933333,17.4996667 L27.4933333,17.4996667 L21.8016667,17.4996667 L16.9066667,2.818 Z M13.3333333,7.905 L16.5316667,17.5 L10.135,17.5 L13.3333333,7.905 Z M0,-0.000833333337 L10.135,1.68916667 L5.67666667,15.0641667 C4.63166667,18.1991667 0,17.4475 0,14.1425 L0,14.1425 L0,-0.000833333337 Z" id="Combined-Shape"></path>
            </g>
        </g>
    </g>
</svg>